<svg xmlns="http://www.w3.org/2000/svg" xmlns:xlink="http://www.w3.org/1999/xlink" width="600" zoomAndPan="magnify" viewBox="0 0 450 225" height="300" preserveAspectRatio="xMidYMid meet" version="1.0"><defs><g/><clipPath id="id1"><path d="M 40.351562 168.640625 L 89.253906 168.640625 L 89.253906 174.78125 L 40.351562 174.78125 Z M 40.351562 168.640625 " clip-rule="nonzero"/></clipPath><clipPath id="id2"><path d="M 40.351562 46.574219 L 416.851562 46.574219 L 416.851562 174.78125 L 40.351562 174.78125 Z M 40.351562 46.574219 " clip-rule="nonzero"/></clipPath><clipPath id="id3"><path d="M 102.210938 104.546875 L 131.460938 104.546875 L 131.460938 148.046875 L 102.210938 148.046875 Z M 102.210938 104.546875 " clip-rule="nonzero"/></clipPath><clipPath id="id4"><path d="M 344.890625 88.660156 L 390.640625 88.660156 L 390.640625 148.660156 L 344.890625 148.660156 Z M 344.890625 88.660156 " clip-rule="nonzero"/></clipPath><clipPath id="id5"><path d="M 353 88.660156 L 382 88.660156 L 382 131 L 353 131 Z M 353 88.660156 " clip-rule="nonzero"/></clipPath><clipPath id="id6"><path d="M 350 145 L 385 145 L 385 148.660156 L 350 148.660156 Z M 350 145 " clip-rule="nonzero"/></clipPath></defs><g clip-path="url(#id1)"><path fill="#ffa015" d="M 40.351562 168.703125 L 89.074219 217.496094 L 89.074219 168.703125 Z M 40.351562 168.703125 " fill-opacity="1" fill-rule="nonzero"/></g><g clip-path="url(#id2)"><path fill="#feffe8" d="M 47.671875 175.261719 L 363.292969 175.261719 C 392.875 175.261719 416.859375 151.246094 416.859375 121.625 L 416.859375 100.210938 C 416.859375 70.589844 392.875 46.574219 363.292969 46.574219 L 83.480469 46.574219 C 59.660156 46.574219 40.351562 65.910156 40.351562 89.765625 L 40.351562 167.929688 C 40.351562 171.980469 43.628906 175.261719 47.671875 175.261719 " fill-opacity="1" fill-rule="nonzero"/></g><g fill="#073a7d" fill-opacity="1"><g transform="translate(125.224711, 147.420245)"><g/></g></g><g fill="#073a7d" fill-opacity="1"><g transform="translate(137.420975, 147.420245)"><g><path d="M 11.078125 0.28125 C 7.773438 0.28125 5.242188 -0.425781 3.484375 -1.84375 C 1.722656 -3.269531 0.84375 -5.296875 0.84375 -7.921875 C 0.84375 -10.285156 1.515625 -12.1875 2.859375 -13.625 C 4.210938 -15.070312 5.976562 -15.796875 8.15625 -15.796875 C 10.4375 -15.796875 11.765625 -14.84375 12.140625 -12.9375 C 10.609375 -12.75 9.378906 -12.191406 8.453125 -11.265625 C 7.535156 -10.347656 7.078125 -9.160156 7.078125 -7.703125 C 7.078125 -6.390625 7.46875 -5.359375 8.25 -4.609375 C 9.039062 -3.859375 10.09375 -3.484375 11.40625 -3.484375 C 13.582031 -3.484375 15.363281 -4.457031 16.75 -6.40625 C 18.132812 -8.351562 18.828125 -10.847656 18.828125 -13.890625 C 18.828125 -16.472656 18.285156 -18.46875 17.203125 -19.875 C 16.117188 -21.28125 14.601562 -21.984375 12.65625 -21.984375 C 10.664062 -21.984375 8.207031 -21.140625 5.28125 -19.453125 L 4.546875 -19.953125 L 8.875 -41.265625 C 13.113281 -40.773438 16.265625 -40.53125 18.328125 -40.53125 C 21.734375 -40.53125 24.992188 -41.054688 28.109375 -42.109375 C 28.179688 -41.285156 28.21875 -40.664062 28.21875 -40.25 C 28.21875 -38.300781 27.703125 -36.726562 26.671875 -35.53125 C 25.640625 -34.332031 24 -33.734375 21.75 -33.734375 C 20.894531 -33.734375 19.863281 -33.828125 18.65625 -34.015625 C 17.457031 -34.203125 16.316406 -34.40625 15.234375 -34.625 C 14.296875 -34.8125 13.34375 -34.984375 12.375 -35.140625 L 10.125 -24.96875 C 12.5625 -26.125 14.882812 -26.703125 17.09375 -26.703125 C 20.164062 -26.703125 22.59375 -25.660156 24.375 -23.578125 C 26.15625 -21.503906 27.046875 -18.6875 27.046875 -15.125 C 27.046875 -12.082031 26.378906 -9.398438 25.046875 -7.078125 C 23.710938 -4.753906 21.835938 -2.945312 19.421875 -1.65625 C 17.003906 -0.363281 14.222656 0.28125 11.078125 0.28125 Z M 11.078125 0.28125 "/></g></g></g><g fill="#073a7d" fill-opacity="1"><g transform="translate(166.48381, 147.420245)"><g><path d="M 11.078125 0.28125 C 7.773438 0.28125 5.242188 -0.425781 3.484375 -1.84375 C 1.722656 -3.269531 0.84375 -5.296875 0.84375 -7.921875 C 0.84375 -10.285156 1.515625 -12.1875 2.859375 -13.625 C 4.210938 -15.070312 5.976562 -15.796875 8.15625 -15.796875 C 10.4375 -15.796875 11.765625 -14.84375 12.140625 -12.9375 C 10.609375 -12.75 9.378906 -12.191406 8.453125 -11.265625 C 7.535156 -10.347656 7.078125 -9.160156 7.078125 -7.703125 C 7.078125 -6.390625 7.46875 -5.359375 8.25 -4.609375 C 9.039062 -3.859375 10.09375 -3.484375 11.40625 -3.484375 C 13.582031 -3.484375 15.363281 -4.457031 16.75 -6.40625 C 18.132812 -8.351562 18.828125 -10.847656 18.828125 -13.890625 C 18.828125 -16.472656 18.285156 -18.46875 17.203125 -19.875 C 16.117188 -21.28125 14.601562 -21.984375 12.65625 -21.984375 C 10.664062 -21.984375 8.207031 -21.140625 5.28125 -19.453125 L 4.546875 -19.953125 L 8.875 -41.265625 C 13.113281 -40.773438 16.265625 -40.53125 18.328125 -40.53125 C 21.734375 -40.53125 24.992188 -41.054688 28.109375 -42.109375 C 28.179688 -41.285156 28.21875 -40.664062 28.21875 -40.25 C 28.21875 -38.300781 27.703125 -36.726562 26.671875 -35.53125 C 25.640625 -34.332031 24 -33.734375 21.75 -33.734375 C 20.894531 -33.734375 19.863281 -33.828125 18.65625 -34.015625 C 17.457031 -34.203125 16.316406 -34.40625 15.234375 -34.625 C 14.296875 -34.8125 13.34375 -34.984375 12.375 -35.140625 L 10.125 -24.96875 C 12.5625 -26.125 14.882812 -26.703125 17.09375 -26.703125 C 20.164062 -26.703125 22.59375 -25.660156 24.375 -23.578125 C 26.15625 -21.503906 27.046875 -18.6875 27.046875 -15.125 C 27.046875 -12.082031 26.378906 -9.398438 25.046875 -7.078125 C 23.710938 -4.753906 21.835938 -2.945312 19.421875 -1.65625 C 17.003906 -0.363281 14.222656 0.28125 11.078125 0.28125 Z M 11.078125 0.28125 "/></g></g></g><g fill="#073a7d" fill-opacity="1"><g transform="translate(195.546646, 147.420245)"><g><path d="M 2.3125 7.078125 C 1.96875 6.859375 1.796875 6.539062 1.796875 6.125 C 1.796875 5.675781 1.90625 5.28125 2.125 4.9375 C 2.351562 4.601562 2.734375 4.15625 3.265625 3.59375 C 3.785156 3.03125 4.15625 2.582031 4.375 2.25 C 4.601562 1.914062 4.71875 1.503906 4.71875 1.015625 C 4.71875 0.597656 4.472656 0.222656 3.984375 -0.109375 C 2.222656 -1.234375 1.34375 -2.601562 1.34375 -4.21875 C 1.34375 -5.457031 1.773438 -6.515625 2.640625 -7.390625 C 3.503906 -8.273438 4.554688 -8.71875 5.796875 -8.71875 C 6.992188 -8.71875 7.925781 -8.320312 8.59375 -7.53125 C 9.269531 -6.75 9.609375 -5.71875 9.609375 -4.4375 C 9.609375 -2.675781 8.941406 -0.691406 7.609375 1.515625 C 6.285156 3.722656 4.519531 5.578125 2.3125 7.078125 Z M 2.3125 7.078125 "/></g></g></g><g fill="#073a7d" fill-opacity="1"><g transform="translate(207.688954, 147.420245)"><g><path d="M 12.53125 0.5625 C 8.414062 0.5625 5.492188 -0.691406 3.765625 -3.203125 C 2.046875 -5.710938 1.1875 -9.144531 1.1875 -13.5 C 1.1875 -18.664062 1.988281 -23.457031 3.59375 -27.875 C 5.207031 -32.300781 7.46875 -35.832031 10.375 -38.46875 C 13.28125 -41.113281 16.585938 -42.4375 20.296875 -42.4375 C 23.890625 -42.4375 26.59375 -41.238281 28.40625 -38.84375 C 30.226562 -36.445312 31.140625 -33.148438 31.140625 -28.953125 C 31.140625 -24.796875 30.503906 -20.4375 29.234375 -15.875 C 27.960938 -11.320312 25.929688 -7.441406 23.140625 -4.234375 C 20.347656 -1.035156 16.8125 0.5625 12.53125 0.5625 Z M 13.265625 -3.65625 C 15.023438 -3.65625 16.691406 -5.003906 18.265625 -7.703125 C 19.835938 -10.398438 21.101562 -13.863281 22.0625 -18.09375 C 23.019531 -22.332031 23.5 -26.609375 23.5 -30.921875 C 23.5 -33.285156 23.21875 -35.242188 22.65625 -36.796875 C 22.09375 -38.347656 21.285156 -39.125 20.234375 -39.125 C 18.515625 -39.125 16.828125 -37.753906 15.171875 -35.015625 C 13.523438 -32.285156 12.175781 -28.800781 11.125 -24.5625 C 10.082031 -20.332031 9.5625 -16.175781 9.5625 -12.09375 C 9.5625 -6.46875 10.796875 -3.65625 13.265625 -3.65625 Z M 13.265625 -3.65625 "/></g></g></g><g fill="#073a7d" fill-opacity="1"><g transform="translate(238.382013, 147.420245)"><g><path d="M 12.53125 0.5625 C 8.414062 0.5625 5.492188 -0.691406 3.765625 -3.203125 C 2.046875 -5.710938 1.1875 -9.144531 1.1875 -13.5 C 1.1875 -18.664062 1.988281 -23.457031 3.59375 -27.875 C 5.207031 -32.300781 7.46875 -35.832031 10.375 -38.46875 C 13.28125 -41.113281 16.585938 -42.4375 20.296875 -42.4375 C 23.890625 -42.4375 26.59375 -41.238281 28.40625 -38.84375 C 30.226562 -36.445312 31.140625 -33.148438 31.140625 -28.953125 C 31.140625 -24.796875 30.503906 -20.4375 29.234375 -15.875 C 27.960938 -11.320312 25.929688 -7.441406 23.140625 -4.234375 C 20.347656 -1.035156 16.8125 0.5625 12.53125 0.5625 Z M 13.265625 -3.65625 C 15.023438 -3.65625 16.691406 -5.003906 18.265625 -7.703125 C 19.835938 -10.398438 21.101562 -13.863281 22.0625 -18.09375 C 23.019531 -22.332031 23.5 -26.609375 23.5 -30.921875 C 23.5 -33.285156 23.21875 -35.242188 22.65625 -36.796875 C 22.09375 -38.347656 21.285156 -39.125 20.234375 -39.125 C 18.515625 -39.125 16.828125 -37.753906 15.171875 -35.015625 C 13.523438 -32.285156 12.175781 -28.800781 11.125 -24.5625 C 10.082031 -20.332031 9.5625 -16.175781 9.5625 -12.09375 C 9.5625 -6.46875 10.796875 -3.65625 13.265625 -3.65625 Z M 13.265625 -3.65625 "/></g></g></g><g fill="#073a7d" fill-opacity="1"><g transform="translate(269.075065, 147.420245)"><g><path d="M 12.53125 0.5625 C 8.414062 0.5625 5.492188 -0.691406 3.765625 -3.203125 C 2.046875 -5.710938 1.1875 -9.144531 1.1875 -13.5 C 1.1875 -18.664062 1.988281 -23.457031 3.59375 -27.875 C 5.207031 -32.300781 7.46875 -35.832031 10.375 -38.46875 C 13.28125 -41.113281 16.585938 -42.4375 20.296875 -42.4375 C 23.890625 -42.4375 26.59375 -41.238281 28.40625 -38.84375 C 30.226562 -36.445312 31.140625 -33.148438 31.140625 -28.953125 C 31.140625 -24.796875 30.503906 -20.4375 29.234375 -15.875 C 27.960938 -11.320312 25.929688 -7.441406 23.140625 -4.234375 C 20.347656 -1.035156 16.8125 0.5625 12.53125 0.5625 Z M 13.265625 -3.65625 C 15.023438 -3.65625 16.691406 -5.003906 18.265625 -7.703125 C 19.835938 -10.398438 21.101562 -13.863281 22.0625 -18.09375 C 23.019531 -22.332031 23.5 -26.609375 23.5 -30.921875 C 23.5 -33.285156 23.21875 -35.242188 22.65625 -36.796875 C 22.09375 -38.347656 21.285156 -39.125 20.234375 -39.125 C 18.515625 -39.125 16.828125 -37.753906 15.171875 -35.015625 C 13.523438 -32.285156 12.175781 -28.800781 11.125 -24.5625 C 10.082031 -20.332031 9.5625 -16.175781 9.5625 -12.09375 C 9.5625 -6.46875 10.796875 -3.65625 13.265625 -3.65625 Z M 13.265625 -3.65625 "/></g></g></g><g clip-path="url(#id3)"><path fill="#073a7d" d="M 122.65625 109.390625 L 129.9375 109.390625 L 131.460938 104.5625 L 103.734375 104.5625 L 102.210938 109.390625 L 111.960938 109.390625 C 115.707031 109.390625 118.855469 111.800781 120 115.128906 L 103.734375 115.128906 L 102.210938 119.957031 L 120.191406 119.957031 C 119.238281 123.597656 115.929688 126.296875 111.960938 126.296875 L 102.210938 126.296875 L 102.210938 130.007812 L 120.1875 148.03125 L 126.585938 148.03125 L 126.585938 147.429688 L 109.523438 130.523438 C 111.019531 130.523438 112.796875 130.523438 113.179688 130.523438 C 119.515625 130.523438 124.742188 125.949219 125.761719 119.957031 L 129.9375 119.957031 L 131.460938 115.128906 L 125.664062 115.128906 C 125.183594 112.945312 124.113281 110.996094 122.65625 109.390625 Z M 122.65625 109.390625 " fill-opacity="1" fill-rule="nonzero"/></g><g clip-path="url(#id4)"><path stroke-linecap="butt" transform="matrix(0.0310609, 0, 0, -0.031185, 301.712771, 184.959098)" fill="none" stroke-linejoin="miter" d="M 1710.167323 2958.842616 L 1452.482653 2958.842616 C 1452.482653 2958.842616 1416.766476 2432.247819 1836.557314 2487.362403 " stroke="#fabb4c" stroke-width="120" stroke-opacity="1" stroke-miterlimit="10"/><path stroke-linecap="butt" transform="matrix(0.0310609, 0, 0, -0.031185, 301.712771, 184.959113)" fill="none" stroke-linejoin="miter" d="M 2541.826339 2958.843078 L 2799.511038 2958.843078 C 2799.511038 2958.843078 2835.227219 2432.248281 2415.562094 2487.362865 " stroke="#fabb4c" stroke-width="120" stroke-opacity="1" stroke-miterlimit="10"/></g><g clip-path="url(#id5)"><path fill="#fabb4c" d="M 353.566406 88.65625 L 353.566406 99.496094 C 354.058594 118.507812 366.117188 118.378906 366.117188 118.378906 L 366.117188 130.105469 L 369.378906 130.105469 L 369.378906 118.378906 C 369.378906 118.378906 381.4375 118.507812 381.933594 99.496094 L 381.933594 88.65625 L 353.566406 88.65625 " fill-opacity="1" fill-rule="nonzero"/></g><path fill="#fabb4c" d="M 369.378906 130.105469 L 366.117188 130.105469 L 361.863281 133.929688 L 373.632812 133.929688 L 369.378906 130.105469 " fill-opacity="1" fill-rule="nonzero"/><path fill="#3d4176" d="M 381.730469 145.984375 L 353.765625 145.984375 L 353.765625 133.929688 L 381.730469 133.929688 L 381.730469 145.984375 " fill-opacity="1" fill-rule="nonzero"/><g clip-path="url(#id6)"><path fill="#2c2d53" d="M 384.601562 148.664062 L 350.71875 148.664062 L 350.71875 145.984375 L 384.601562 145.984375 L 384.601562 148.664062 " fill-opacity="1" fill-rule="nonzero"/></g><path fill="#fabb4c" d="M 375.1875 143.210938 L 360.308594 143.210938 L 360.308594 136.707031 L 375.1875 136.707031 L 375.1875 143.210938 " fill-opacity="1" fill-rule="nonzero"/><path fill="#fff766" d="M 367.75 93.320312 L 369.941406 97.785156 L 374.851562 98.5 L 371.296875 101.980469 L 372.136719 106.882812 L 367.75 104.566406 L 363.359375 106.882812 L 364.199219 101.980469 L 360.644531 98.5 L 365.554688 97.785156 L 367.75 93.320312 " fill-opacity="1" fill-rule="nonzero"/><g fill="#073a7d" fill-opacity="1"><g transform="translate(123.45458, 85.519606)"><g><path d="M 4.304688 -10.910156 L 0 -10.910156 C 0.203125 -10.355469 0.261719 -9.71875 0.261719 -8.976562 C 0.261719 -7.78125 0.261719 -3.128906 0.261719 -1.933594 C 0.261719 -1.191406 0.203125 -0.554688 0 0 C 0.640625 0 1.554688 0 2.195312 0 C 1.992188 -0.554688 1.933594 -1.191406 1.933594 -1.933594 L 1.933594 -2.238281 C 1.933594 -5.730469 7.855469 -5.105469 7.855469 -8.597656 C 7.855469 -9.863281 6.734375 -10.910156 4.304688 -10.910156 Z M 1.933594 -3.984375 L 1.933594 -10.402344 L 2.808594 -10.402344 C 4.554688 -10.402344 6.125 -10.007812 6.167969 -8.667969 C 6.253906 -6.429688 3.15625 -6.050781 1.933594 -3.984375 Z M 1.933594 -3.984375 "/></g></g></g><g fill="#073a7d" fill-opacity="1"><g transform="translate(136.00668, 85.519606)"><g><path d="M 4.304688 -10.910156 L 0 -10.910156 C 0.203125 -10.355469 0.261719 -9.71875 0.261719 -8.976562 C 0.261719 -7.78125 0.261719 -3.128906 0.261719 -1.933594 C 0.261719 -1.191406 0.203125 -0.554688 0 0 C 0.640625 0 1.554688 0 2.195312 0 C 1.992188 -0.554688 1.933594 -1.191406 1.933594 -1.933594 L 1.933594 -2.238281 C 1.933594 -3.402344 2.589844 -4.101562 3.460938 -4.65625 L 5.25 -1.292969 C 5.484375 -0.871094 5.644531 -0.464844 5.746094 0 L 8.058594 0 C 7.695312 -0.464844 7.171875 -1.292969 6.824219 -1.933594 L 4.945312 -5.441406 C 6.414062 -6.152344 7.855469 -6.878906 7.855469 -8.597656 C 7.855469 -9.863281 6.734375 -10.910156 4.304688 -10.910156 Z M 1.933594 -3.984375 L 1.933594 -10.402344 L 2.808594 -10.402344 C 4.554688 -10.402344 6.125 -10.007812 6.167969 -8.667969 C 6.253906 -6.429688 3.15625 -6.050781 1.933594 -3.984375 Z M 1.933594 -3.984375 "/></g></g></g><g fill="#073a7d" fill-opacity="1"><g transform="translate(148.762395, 85.519606)"><g><path d="M 0.261719 -8.976562 L 0.261719 -1.933594 C 0.261719 -1.191406 0.203125 -0.554688 0 0 L 2.195312 0 C 1.992188 -0.554688 1.933594 -1.191406 1.933594 -1.933594 C 1.933594 -3.128906 1.933594 -7.78125 1.933594 -8.976562 C 1.933594 -9.71875 1.992188 -10.355469 2.195312 -10.910156 L 0 -10.910156 C 0.203125 -10.355469 0.261719 -9.71875 0.261719 -8.976562 Z M 0.261719 -8.976562 "/></g></g></g><g fill="#073a7d" fill-opacity="1"><g transform="translate(155.700593, 85.519606)"><g><path d="M 7.433594 -10.34375 C 7.199219 -9.746094 6.867188 -9.296875 6.589844 -8.917969 L 1.613281 -2.109375 C 1.03125 -1.339844 0.496094 -0.609375 -0.261719 0 C 3.011719 0 6.285156 0 9.570312 0 L 9.671875 -1.660156 L 9.542969 -1.660156 C 9.425781 -1.351562 8.933594 -0.566406 7.621094 -0.566406 L 2.75 -0.566406 C 2.980469 -1.164062 3.316406 -1.613281 3.609375 -1.992188 L 8.582031 -8.800781 C 9.148438 -9.570312 9.6875 -10.300781 10.445312 -10.910156 C 7.171875 -10.910156 3.898438 -10.910156 0.609375 -10.910156 L 0.507812 -9.25 L 0.640625 -9.25 C 0.757812 -9.558594 1.25 -10.34375 2.558594 -10.34375 Z M 7.433594 -10.34375 "/></g></g></g><g fill="#073a7d" fill-opacity="1"><g transform="translate(170.76877, 85.519606)"><g><path d="M 7.578125 0 L 7.679688 -1.660156 L 7.550781 -1.660156 C 7.433594 -1.351562 6.9375 -0.566406 5.628906 -0.566406 L 1.933594 -0.566406 L 1.933594 -4.714844 L 3.535156 -4.714844 C 4.84375 -4.714844 5.339844 -3.925781 5.453125 -3.621094 L 5.585938 -3.621094 C 5.585938 -4.539062 5.585938 -5.453125 5.585938 -6.371094 L 5.453125 -6.371094 C 5.339844 -6.066406 4.84375 -5.28125 3.535156 -5.28125 L 1.933594 -5.28125 L 1.933594 -10.34375 L 5.222656 -10.34375 C 6.53125 -10.34375 7.011719 -9.558594 7.140625 -9.25 L 7.257812 -9.25 L 7.15625 -10.910156 L 0 -10.910156 C 0.203125 -10.355469 0.261719 -9.71875 0.261719 -8.976562 C 0.261719 -7.78125 0.261719 -3.128906 0.261719 -1.933594 C 0.261719 -1.191406 0.203125 -0.554688 0 0 Z M 7.578125 0 "/></g></g></g><g fill="#073a7d" fill-opacity="1"><g transform="translate(183.160888, 85.519606)"><g/></g></g><g fill="#073a7d" fill-opacity="1"><g transform="translate(191.665336, 85.519606)"><g><path d="M 5.949219 -10.910156 L 4.144531 -10.910156 L 0.902344 -1.921875 C 0.667969 -1.28125 0.320312 -0.539062 0 0 L 1.90625 0 C 1.441406 -0.785156 1.308594 -1.382812 1.5 -1.921875 C 1.761719 -2.632812 2.023438 -3.214844 2.707031 -3.609375 C 3.710938 -4.203125 5.265625 -4.191406 6.285156 -3.5625 C 6.878906 -3.1875 7.15625 -2.632812 7.417969 -1.890625 C 7.652344 -1.265625 7.898438 -0.507812 7.898438 0 L 10.109375 0 C 9.789062 -0.539062 9.425781 -1.28125 9.195312 -1.921875 Z M 6.664062 -4 C 5.382812 -4.816406 3.519531 -4.816406 2.253906 -4 L 4.453125 -10.066406 Z M 6.664062 -4 "/></g></g></g><g fill="#073a7d" fill-opacity="1"><g transform="translate(206.471724, 85.519606)"><g><path d="M 1.921875 0 C 1.03125 -0.507812 0.828125 -1.671875 0.828125 -2.605469 L 0.828125 -9.410156 L 4.640625 -2.035156 L 5.28125 -2.035156 L 9.238281 -9.671875 L 9.238281 -1.933594 C 9.238281 -1.191406 9.195312 -0.554688 8.976562 0 L 11.1875 0 C 10.96875 -0.554688 10.925781 -1.191406 10.925781 -1.933594 C 10.925781 -3.128906 10.925781 -7.78125 10.925781 -8.976562 C 10.925781 -9.71875 10.96875 -10.355469 11.1875 -10.910156 L 9.238281 -10.910156 L 5.585938 -3.871094 L 1.949219 -10.910156 L 0.0585938 -10.910156 L 0.261719 -10.503906 L 0.261719 -1.933594 C 0.261719 -1.191406 0.203125 -0.554688 0 0 Z M 1.921875 0 "/></g></g></g><g fill="#073a7d" fill-opacity="1"><g transform="translate(222.354355, 85.519606)"><g><path d="M 5.660156 -11.113281 C 2.53125 -11.113281 0 -8.582031 0 -5.453125 C 0 -2.328125 2.53125 0.203125 5.660156 0.203125 C 8.785156 0.203125 11.316406 -2.328125 11.316406 -5.453125 C 11.316406 -8.582031 8.785156 -11.113281 5.660156 -11.113281 Z M 8.101562 -1.019531 C 6.195312 0.0273438 3.578125 -1.121094 2.226562 -3.578125 C 0.871094 -6.023438 1.324219 -8.859375 3.214844 -9.90625 C 5.105469 -10.9375 7.738281 -9.789062 9.089844 -7.347656 C 10.429688 -4.886719 9.992188 -2.050781 8.101562 -1.019531 Z M 8.101562 -1.019531 "/></g></g></g><g fill="#073a7d" fill-opacity="1"><g transform="translate(238.396969, 85.519606)"><g><path d="M 8.582031 -10.910156 L 6.664062 -10.910156 C 7.550781 -10.402344 7.753906 -9.25 7.753906 -8.320312 L 7.753906 -4 C 7.753906 -2.035156 6.5625 -0.640625 4.554688 -0.597656 C 2.429688 -0.566406 1.933594 -2.503906 1.933594 -4.101562 L 1.933594 -8.976562 C 1.933594 -9.71875 1.992188 -10.355469 2.195312 -10.910156 L 0 -10.910156 C 0.203125 -10.355469 0.261719 -9.71875 0.261719 -8.976562 L 0.261719 -4.132812 C 0.261719 -1.761719 1.761719 0 4.292969 0 C 6.824219 0 8.320312 -1.660156 8.320312 -3.957031 L 8.320312 -8.976562 C 8.320312 -9.71875 8.378906 -10.355469 8.582031 -10.910156 Z M 8.582031 -10.910156 "/></g></g></g><g fill="#073a7d" fill-opacity="1"><g transform="translate(251.661718, 85.519606)"><g><path d="M 7.199219 -10.910156 C 8.089844 -10.402344 8.292969 -9.238281 8.292969 -8.304688 L 8.292969 -2.558594 L 2.09375 -10.910156 C 1.398438 -10.910156 0.699219 -10.910156 0 -10.910156 L 0.261719 -10.5625 L 0.261719 -1.933594 C 0.261719 -1.191406 0.203125 -0.554688 0 0 L 1.921875 0 C 1.03125 -0.507812 0.828125 -1.671875 0.828125 -2.605469 L 0.828125 -9.789062 L 8.101562 0 L 8.859375 0 L 8.859375 -8.976562 C 8.859375 -9.71875 8.917969 -10.355469 9.121094 -10.910156 Z M 7.199219 -10.910156 "/></g></g></g><g fill="#073a7d" fill-opacity="1"><g transform="translate(265.49367, 85.519606)"><g><path d="M 5.25 -1.933594 C 5.25 -4.726562 5.25 -7.535156 5.25 -10.34375 L 6.765625 -10.34375 C 8.074219 -10.34375 8.566406 -9.558594 8.683594 -9.25 L 8.816406 -9.25 L 8.714844 -10.910156 L 0.101562 -10.910156 L 0 -9.25 L 0.132812 -9.25 C 0.246094 -9.558594 0.742188 -10.34375 2.035156 -10.34375 L 3.5625 -10.34375 C 3.5625 -7.535156 3.5625 -4.726562 3.5625 -1.933594 C 3.5625 -1.191406 3.519531 -0.554688 3.300781 0 L 5.5 0 C 5.296875 -0.554688 5.25 -1.191406 5.25 -1.933594 Z M 5.25 -1.933594 "/></g></g></g><g fill="#073a7d" fill-opacity="1"><g transform="translate(279.01991, 85.519606)"><g/></g></g></svg>