<svg xmlns="http://www.w3.org/2000/svg" xmlns:xlink="http://www.w3.org/1999/xlink" width="2400" zoomAndPan="magnify" viewBox="0 0 1800 749.999995" height="1000" preserveAspectRatio="xMidYMid meet" version="1.0"><defs><g/></defs><rect x="-180" width="2160" fill="#ffffff" y="-74.999999" height="899.999994" fill-opacity="1"/><rect x="-180" width="2160" fill="#fdf5d7" y="-74.999999" height="899.999994" fill-opacity="1"/><rect x="-180" width="2160" fill="#ffffff" y="-74.999999" height="899.999994" fill-opacity="1"/><rect x="-180" width="2160" fill="#fdf5d7" y="-74.999999" height="899.999994" fill-opacity="1"/><g fill="#073a7d" fill-opacity="1"><g transform="translate(403.091771, 448.499998)"><g><path d="M 86 3.359375 C 75.738281 3.359375 70.609375 -1.046875 70.609375 -9.859375 C 70.609375 -12.753906 71.035156 -16.070312 71.890625 -19.8125 C 72.753906 -23.5625 73.972656 -28.398438 75.546875 -34.328125 C 77.390625 -40.503906 78.769531 -45.757812 79.6875 -50.09375 C 80.601562 -54.4375 81.0625 -58.316406 81.0625 -61.734375 C 81.0625 -70.679688 77.117188 -75.15625 69.234375 -75.15625 C 67.128906 -75.15625 64.957031 -74.890625 62.71875 -74.359375 L 46.953125 0 L 18.546875 0 L 45.375 -125.453125 L 74.5625 -129.390625 L 64.890625 -83.828125 L 66.46875 -83.828125 C 71.601562 -83.828125 76.335938 -85.601562 80.671875 -89.15625 C 85.015625 -92.707031 88.398438 -97.144531 90.828125 -102.46875 C 93.265625 -107.789062 94.484375 -113.019531 94.484375 -118.15625 C 94.484375 -124.195312 92.675781 -129.15625 89.0625 -133.03125 C 85.445312 -136.914062 80.019531 -138.859375 72.78125 -138.859375 C 62.132812 -138.859375 52.800781 -136.953125 44.78125 -133.140625 C 36.757812 -129.328125 30.546875 -123.800781 26.140625 -116.5625 C 21.734375 -109.332031 19.53125 -100.789062 19.53125 -90.9375 C 19.53125 -86.070312 19.988281 -82.679688 20.90625 -80.765625 C 21.832031 -78.859375 22.296875 -77.773438 22.296875 -77.515625 C 15.191406 -77.515625 9.894531 -78.992188 6.40625 -81.953125 C 2.925781 -84.910156 1.1875 -89.8125 1.1875 -96.65625 C 1.1875 -105.070312 4.632812 -113.253906 11.53125 -121.203125 C 18.4375 -129.160156 27.28125 -135.601562 38.0625 -140.53125 C 48.851562 -145.46875 59.640625 -147.9375 70.421875 -147.9375 C 80.285156 -147.9375 88.566406 -146.488281 95.265625 -143.59375 C 101.972656 -140.707031 106.96875 -136.863281 110.25 -132.0625 C 113.539062 -127.257812 115.1875 -122.03125 115.1875 -116.375 C 115.1875 -110.195312 113.28125 -104.015625 109.46875 -97.828125 C 105.65625 -91.648438 100.460938 -86.585938 93.890625 -82.640625 C 98.890625 -81.203125 102.40625 -78.804688 104.4375 -75.453125 C 106.476562 -72.097656 107.5 -67.921875 107.5 -62.921875 C 107.5 -59.109375 107.035156 -55.0625 106.109375 -50.78125 C 105.191406 -46.507812 103.878906 -41.21875 102.171875 -34.90625 C 101.117188 -30.832031 100.132812 -26.820312 99.21875 -22.875 C 98.300781 -18.9375 97.84375 -15.648438 97.84375 -13.015625 C 97.84375 -9.992188 98.53125 -7.296875 99.90625 -4.921875 C 101.289062 -2.554688 103.164062 -0.914062 105.53125 0 C 97.507812 2.238281 91 3.359375 86 3.359375 Z M 86 3.359375 "/></g></g></g><g fill="#073a7d" fill-opacity="1"><g transform="translate(521.643309, 448.499998)"><g><path d="M 48.328125 3.546875 C 40.046875 3.546875 32.75 2.101562 26.4375 -0.78125 C 20.125 -3.675781 15.253906 -7.722656 11.828125 -12.921875 C 8.410156 -18.117188 6.703125 -24.132812 6.703125 -30.96875 C 6.703125 -36.75 7.914062 -42.003906 10.34375 -46.734375 C 12.78125 -51.472656 16.070312 -55.222656 20.21875 -57.984375 C 24.363281 -60.753906 28.929688 -62.140625 33.921875 -62.140625 C 38.523438 -62.140625 42.40625 -60.988281 45.5625 -58.6875 C 48.71875 -56.382812 50.691406 -53.191406 51.484375 -49.109375 C 44.640625 -49.109375 39.179688 -47.300781 35.109375 -43.6875 C 31.035156 -40.070312 29 -35.175781 29 -29 C 29 -23.34375 30.707031 -18.800781 34.125 -15.375 C 37.539062 -11.957031 42.078125 -10.25 47.734375 -10.25 C 54.703125 -10.25 60.453125 -12.582031 64.984375 -17.25 C 69.523438 -21.925781 71.796875 -27.8125 71.796875 -34.90625 C 71.796875 -41.09375 70.085938 -46.945312 66.671875 -52.46875 C 63.253906 -57.988281 58.125 -64.695312 51.28125 -72.59375 C 44.1875 -80.738281 38.828125 -87.738281 35.203125 -93.59375 C 31.585938 -99.445312 29.78125 -105.859375 29.78125 -112.828125 C 29.78125 -119.660156 31.6875 -125.804688 35.5 -131.265625 C 39.3125 -136.722656 44.570312 -141.03125 51.28125 -144.1875 C 57.988281 -147.34375 65.550781 -148.921875 73.96875 -148.921875 C 84.625 -148.921875 93.140625 -146.421875 99.515625 -141.421875 C 105.890625 -136.429688 109.078125 -129.726562 109.078125 -121.3125 C 109.078125 -115.789062 107.695312 -111.316406 104.9375 -107.890625 C 102.175781 -104.472656 98.5625 -102.765625 94.09375 -102.765625 C 89.09375 -102.765625 85.082031 -104.800781 82.0625 -108.875 C 84.550781 -110.71875 86.519531 -113.148438 87.96875 -116.171875 C 89.414062 -119.203125 90.140625 -122.359375 90.140625 -125.640625 C 90.140625 -129.847656 88.890625 -133.203125 86.390625 -135.703125 C 83.890625 -138.203125 80.472656 -139.453125 76.140625 -139.453125 C 70.878906 -139.453125 66.570312 -137.578125 63.21875 -133.828125 C 59.863281 -130.085938 58.1875 -125.320312 58.1875 -119.53125 C 58.1875 -114.269531 59.695312 -109.367188 62.71875 -104.828125 C 65.75 -100.296875 70.484375 -94.476562 76.921875 -87.375 C 82.179688 -81.726562 86.421875 -76.863281 89.640625 -72.78125 C 92.867188 -68.707031 95.632812 -64.003906 97.9375 -58.671875 C 100.238281 -53.347656 101.390625 -47.597656 101.390625 -41.421875 C 101.390625 -33.003906 99.050781 -25.375 94.375 -18.53125 C 89.707031 -11.695312 83.332031 -6.304688 75.25 -2.359375 C 67.164062 1.578125 58.191406 3.546875 48.328125 3.546875 Z M 48.328125 3.546875 "/></g></g></g><g fill="#073a7d" fill-opacity="1"><g transform="translate(634.079881, 448.499998)"><g><path d="M 21.703125 0.78125 C 17.359375 0.78125 13.671875 -0.726562 10.640625 -3.75 C 7.617188 -6.769531 6.109375 -10.453125 6.109375 -14.796875 C 6.109375 -19.128906 7.617188 -22.84375 10.640625 -25.9375 C 13.671875 -29.03125 17.359375 -30.578125 21.703125 -30.578125 C 26.035156 -30.578125 29.75 -29.03125 32.84375 -25.9375 C 35.9375 -22.84375 37.484375 -19.128906 37.484375 -14.796875 C 37.484375 -10.453125 35.9375 -6.769531 32.84375 -3.75 C 29.75 -0.726562 26.035156 0.78125 21.703125 0.78125 Z M 21.703125 0.78125 "/></g></g></g><g fill="#073a7d" fill-opacity="1"><g transform="translate(685.95851, 448.499998)"><g/></g></g><g fill="#073a7d" fill-opacity="1"><g transform="translate(728.76328, 448.499998)"><g><path d="M 38.859375 0.984375 C 27.285156 0.984375 18.40625 -1.507812 12.21875 -6.5 C 6.039062 -11.5 2.953125 -18.601562 2.953125 -27.8125 C 2.953125 -36.09375 5.316406 -42.765625 10.046875 -47.828125 C 14.785156 -52.890625 20.96875 -55.421875 28.59375 -55.421875 C 36.625 -55.421875 41.296875 -52.070312 42.609375 -45.375 C 37.210938 -44.707031 32.90625 -42.765625 29.6875 -39.546875 C 26.46875 -36.328125 24.859375 -32.148438 24.859375 -27.015625 C 24.859375 -22.421875 26.238281 -18.804688 29 -16.171875 C 31.757812 -13.546875 35.441406 -12.234375 40.046875 -12.234375 C 47.671875 -12.234375 53.914062 -15.648438 58.78125 -22.484375 C 63.644531 -29.328125 66.078125 -38.070312 66.078125 -48.71875 C 66.078125 -57.789062 64.171875 -64.789062 60.359375 -69.71875 C 56.546875 -74.65625 51.21875 -77.125 44.375 -77.125 C 37.40625 -77.125 28.796875 -74.164062 18.546875 -68.25 L 15.984375 -70.03125 L 31.171875 -144.78125 C 46.023438 -143.070312 57.066406 -142.21875 64.296875 -142.21875 C 76.265625 -142.21875 87.707031 -144.054688 98.625 -147.734375 C 98.882812 -144.847656 99.015625 -142.679688 99.015625 -141.234375 C 99.015625 -134.390625 97.207031 -128.863281 93.59375 -124.65625 C 89.976562 -120.445312 84.222656 -118.34375 76.328125 -118.34375 C 73.304688 -118.34375 69.691406 -118.671875 65.484375 -119.328125 C 61.273438 -119.992188 57.265625 -120.71875 53.453125 -121.5 C 50.171875 -122.15625 46.816406 -122.75 43.390625 -123.28125 L 35.5 -87.578125 C 44.050781 -91.648438 52.207031 -93.6875 59.96875 -93.6875 C 70.75 -93.6875 79.257812 -90.035156 85.5 -82.734375 C 91.75 -75.441406 94.875 -65.550781 94.875 -53.0625 C 94.875 -42.40625 92.539062 -33 87.875 -24.84375 C 83.207031 -16.695312 76.628906 -10.351562 68.140625 -5.8125 C 59.660156 -1.28125 49.898438 0.984375 38.859375 0.984375 Z M 38.859375 0.984375 "/></g></g></g><g fill="#073a7d" fill-opacity="1"><g transform="translate(830.745193, 448.499998)"><g><path d="M 38.859375 0.984375 C 27.285156 0.984375 18.40625 -1.507812 12.21875 -6.5 C 6.039062 -11.5 2.953125 -18.601562 2.953125 -27.8125 C 2.953125 -36.09375 5.316406 -42.765625 10.046875 -47.828125 C 14.785156 -52.890625 20.96875 -55.421875 28.59375 -55.421875 C 36.625 -55.421875 41.296875 -52.070312 42.609375 -45.375 C 37.210938 -44.707031 32.90625 -42.765625 29.6875 -39.546875 C 26.46875 -36.328125 24.859375 -32.148438 24.859375 -27.015625 C 24.859375 -22.421875 26.238281 -18.804688 29 -16.171875 C 31.757812 -13.546875 35.441406 -12.234375 40.046875 -12.234375 C 47.671875 -12.234375 53.914062 -15.648438 58.78125 -22.484375 C 63.644531 -29.328125 66.078125 -38.070312 66.078125 -48.71875 C 66.078125 -57.789062 64.171875 -64.789062 60.359375 -69.71875 C 56.546875 -74.65625 51.21875 -77.125 44.375 -77.125 C 37.40625 -77.125 28.796875 -74.164062 18.546875 -68.25 L 15.984375 -70.03125 L 31.171875 -144.78125 C 46.023438 -143.070312 57.066406 -142.21875 64.296875 -142.21875 C 76.265625 -142.21875 87.707031 -144.054688 98.625 -147.734375 C 98.882812 -144.847656 99.015625 -142.679688 99.015625 -141.234375 C 99.015625 -134.390625 97.207031 -128.863281 93.59375 -124.65625 C 89.976562 -120.445312 84.222656 -118.34375 76.328125 -118.34375 C 73.304688 -118.34375 69.691406 -118.671875 65.484375 -119.328125 C 61.273438 -119.992188 57.265625 -120.71875 53.453125 -121.5 C 50.171875 -122.15625 46.816406 -122.75 43.390625 -123.28125 L 35.5 -87.578125 C 44.050781 -91.648438 52.207031 -93.6875 59.96875 -93.6875 C 70.75 -93.6875 79.257812 -90.035156 85.5 -82.734375 C 91.75 -75.441406 94.875 -65.550781 94.875 -53.0625 C 94.875 -42.40625 92.539062 -33 87.875 -24.84375 C 83.207031 -16.695312 76.628906 -10.351562 68.140625 -5.8125 C 59.660156 -1.28125 49.898438 0.984375 38.859375 0.984375 Z M 38.859375 0.984375 "/></g></g></g><g fill="#073a7d" fill-opacity="1"><g transform="translate(932.727106, 448.499998)"><g><path d="M 8.09375 24.859375 C 6.90625 24.066406 6.3125 22.945312 6.3125 21.5 C 6.3125 19.925781 6.703125 18.546875 7.484375 17.359375 C 8.273438 16.171875 9.59375 14.59375 11.4375 12.625 C 13.28125 10.65625 14.59375 9.078125 15.375 7.890625 C 16.164062 6.703125 16.5625 5.253906 16.5625 3.546875 C 16.5625 2.097656 15.707031 0.785156 14 -0.390625 C 7.820312 -4.335938 4.734375 -9.140625 4.734375 -14.796875 C 4.734375 -19.128906 6.242188 -22.84375 9.265625 -25.9375 C 12.296875 -29.03125 15.976562 -30.578125 20.3125 -30.578125 C 24.519531 -30.578125 27.804688 -29.195312 30.171875 -26.4375 C 32.546875 -23.675781 33.734375 -20.054688 33.734375 -15.578125 C 33.734375 -9.398438 31.394531 -2.429688 26.71875 5.328125 C 22.050781 13.085938 15.84375 19.597656 8.09375 24.859375 Z M 8.09375 24.859375 "/></g></g></g><g fill="#073a7d" fill-opacity="1"><g transform="translate(975.334649, 448.499998)"><g><path d="M 43.984375 1.96875 C 29.523438 1.96875 19.269531 -2.429688 13.21875 -11.234375 C 7.164062 -20.046875 4.140625 -32.082031 4.140625 -47.34375 C 4.140625 -65.488281 6.96875 -82.316406 12.625 -97.828125 C 18.28125 -113.347656 26.203125 -125.742188 36.390625 -135.015625 C 46.578125 -144.285156 58.179688 -148.921875 71.203125 -148.921875 C 83.828125 -148.921875 93.328125 -144.710938 99.703125 -136.296875 C 106.085938 -127.878906 109.28125 -116.304688 109.28125 -101.578125 C 109.28125 -86.984375 107.039062 -71.695312 102.5625 -55.71875 C 98.09375 -39.738281 90.957031 -26.128906 81.15625 -14.890625 C 71.363281 -3.648438 58.972656 1.96875 43.984375 1.96875 Z M 46.546875 -12.828125 C 52.734375 -12.828125 58.585938 -17.554688 64.109375 -27.015625 C 69.628906 -36.484375 74.066406 -48.644531 77.421875 -63.5 C 80.773438 -78.363281 82.453125 -93.359375 82.453125 -108.484375 C 82.453125 -116.773438 81.460938 -123.644531 79.484375 -129.09375 C 77.515625 -134.550781 74.691406 -137.28125 71.015625 -137.28125 C 64.960938 -137.28125 59.039062 -132.476562 53.25 -122.875 C 47.46875 -113.28125 42.734375 -101.050781 39.046875 -86.1875 C 35.367188 -71.332031 33.53125 -56.738281 33.53125 -42.40625 C 33.53125 -22.6875 37.867188 -12.828125 46.546875 -12.828125 Z M 46.546875 -12.828125 "/></g></g></g><g fill="#073a7d" fill-opacity="1"><g transform="translate(1083.037051, 448.499998)"><g><path d="M 43.984375 1.96875 C 29.523438 1.96875 19.269531 -2.429688 13.21875 -11.234375 C 7.164062 -20.046875 4.140625 -32.082031 4.140625 -47.34375 C 4.140625 -65.488281 6.96875 -82.316406 12.625 -97.828125 C 18.28125 -113.347656 26.203125 -125.742188 36.390625 -135.015625 C 46.578125 -144.285156 58.179688 -148.921875 71.203125 -148.921875 C 83.828125 -148.921875 93.328125 -144.710938 99.703125 -136.296875 C 106.085938 -127.878906 109.28125 -116.304688 109.28125 -101.578125 C 109.28125 -86.984375 107.039062 -71.695312 102.5625 -55.71875 C 98.09375 -39.738281 90.957031 -26.128906 81.15625 -14.890625 C 71.363281 -3.648438 58.972656 1.96875 43.984375 1.96875 Z M 46.546875 -12.828125 C 52.734375 -12.828125 58.585938 -17.554688 64.109375 -27.015625 C 69.628906 -36.484375 74.066406 -48.644531 77.421875 -63.5 C 80.773438 -78.363281 82.453125 -93.359375 82.453125 -108.484375 C 82.453125 -116.773438 81.460938 -123.644531 79.484375 -129.09375 C 77.515625 -134.550781 74.691406 -137.28125 71.015625 -137.28125 C 64.960938 -137.28125 59.039062 -132.476562 53.25 -122.875 C 47.46875 -113.28125 42.734375 -101.050781 39.046875 -86.1875 C 35.367188 -71.332031 33.53125 -56.738281 33.53125 -42.40625 C 33.53125 -22.6875 37.867188 -12.828125 46.546875 -12.828125 Z M 46.546875 -12.828125 "/></g></g></g><g fill="#073a7d" fill-opacity="1"><g transform="translate(1190.739499, 448.499998)"><g><path d="M 43.984375 1.96875 C 29.523438 1.96875 19.269531 -2.429688 13.21875 -11.234375 C 7.164062 -20.046875 4.140625 -32.082031 4.140625 -47.34375 C 4.140625 -65.488281 6.96875 -82.316406 12.625 -97.828125 C 18.28125 -113.347656 26.203125 -125.742188 36.390625 -135.015625 C 46.578125 -144.285156 58.179688 -148.921875 71.203125 -148.921875 C 83.828125 -148.921875 93.328125 -144.710938 99.703125 -136.296875 C 106.085938 -127.878906 109.28125 -116.304688 109.28125 -101.578125 C 109.28125 -86.984375 107.039062 -71.695312 102.5625 -55.71875 C 98.09375 -39.738281 90.957031 -26.128906 81.15625 -14.890625 C 71.363281 -3.648438 58.972656 1.96875 43.984375 1.96875 Z M 46.546875 -12.828125 C 52.734375 -12.828125 58.585938 -17.554688 64.109375 -27.015625 C 69.628906 -36.484375 74.066406 -48.644531 77.421875 -63.5 C 80.773438 -78.363281 82.453125 -93.359375 82.453125 -108.484375 C 82.453125 -116.773438 81.460938 -123.644531 79.484375 -129.09375 C 77.515625 -134.550781 74.691406 -137.28125 71.015625 -137.28125 C 64.960938 -137.28125 59.039062 -132.476562 53.25 -122.875 C 47.46875 -113.28125 42.734375 -101.050781 39.046875 -86.1875 C 35.367188 -71.332031 33.53125 -56.738281 33.53125 -42.40625 C 33.53125 -22.6875 37.867188 -12.828125 46.546875 -12.828125 Z M 46.546875 -12.828125 "/></g></g></g><g fill="#0e3a54" fill-opacity="1"><g transform="translate(584.825538, 171.028327)"><g><path d="M 15.058594 -38.15625 L 0 -38.15625 C 0.710938 -36.222656 0.914062 -33.984375 0.914062 -31.386719 C 0.914062 -27.214844 0.914062 -10.9375 0.914062 -6.765625 C 0.914062 -4.171875 0.710938 -1.933594 0 0 C 2.238281 0 5.441406 0 7.683594 0 C 6.96875 -1.933594 6.765625 -4.171875 6.765625 -6.765625 L 6.765625 -7.835938 C 6.765625 -20.042969 27.472656 -17.855469 27.472656 -30.066406 C 27.472656 -34.492188 23.554688 -38.15625 15.058594 -38.15625 Z M 6.765625 -13.9375 L 6.765625 -36.375 L 9.820312 -36.375 C 15.921875 -36.375 21.417969 -35 21.570312 -30.320312 C 21.875 -22.484375 11.039062 -21.164062 6.765625 -13.9375 Z M 6.765625 -13.9375 "/></g></g></g><g fill="#0e3a54" fill-opacity="1"><g transform="translate(628.728482, 171.028327)"><g><path d="M 15.058594 -38.15625 L 0 -38.15625 C 0.710938 -36.222656 0.914062 -33.984375 0.914062 -31.386719 C 0.914062 -27.214844 0.914062 -10.9375 0.914062 -6.765625 C 0.914062 -4.171875 0.710938 -1.933594 0 0 C 2.238281 0 5.441406 0 7.683594 0 C 6.96875 -1.933594 6.765625 -4.171875 6.765625 -6.765625 L 6.765625 -7.835938 C 6.765625 -11.902344 9.054688 -14.347656 12.109375 -16.277344 L 18.363281 -4.527344 C 19.179688 -3.050781 19.738281 -1.628906 20.09375 0 L 28.183594 0 C 26.910156 -1.628906 25.082031 -4.527344 23.859375 -6.765625 L 17.296875 -19.027344 C 22.433594 -21.519531 27.472656 -24.0625 27.472656 -30.066406 C 27.472656 -34.492188 23.554688 -38.15625 15.058594 -38.15625 Z M 6.765625 -13.9375 L 6.765625 -36.375 L 9.820312 -36.375 C 15.921875 -36.375 21.417969 -35 21.570312 -30.320312 C 21.875 -22.484375 11.039062 -21.164062 6.765625 -13.9375 Z M 6.765625 -13.9375 "/></g></g></g><g fill="#0e3a54" fill-opacity="1"><g transform="translate(673.343615, 171.028327)"><g><path d="M 0.914062 -31.386719 L 0.914062 -6.765625 C 0.914062 -4.171875 0.710938 -1.933594 0 0 L 7.683594 0 C 6.96875 -1.933594 6.765625 -4.171875 6.765625 -6.765625 C 6.765625 -10.9375 6.765625 -27.214844 6.765625 -31.386719 C 6.765625 -33.984375 6.96875 -36.222656 7.683594 -38.15625 L 0 -38.15625 C 0.710938 -36.222656 0.914062 -33.984375 0.914062 -31.386719 Z M 0.914062 -31.386719 "/></g></g></g><g fill="#0e3a54" fill-opacity="1"><g transform="translate(697.610296, 171.028327)"><g><path d="M 25.996094 -36.171875 C 25.183594 -34.085938 24.011719 -32.507812 23.046875 -31.183594 L 5.648438 -7.375 C 3.613281 -4.679688 1.730469 -2.136719 -0.914062 0 C 10.53125 0 21.976562 0 33.472656 0 L 33.832031 -5.800781 L 33.371094 -5.800781 C 32.964844 -4.730469 31.234375 -1.984375 26.65625 -1.984375 L 9.613281 -1.984375 C 10.429688 -4.070312 11.597656 -5.648438 12.617188 -6.96875 L 30.015625 -30.777344 C 32 -33.472656 33.882812 -36.019531 36.527344 -38.15625 C 25.082031 -38.15625 13.632812 -38.15625 2.136719 -38.15625 L 1.78125 -32.355469 L 2.238281 -32.355469 C 2.644531 -33.421875 4.375 -36.171875 8.953125 -36.171875 Z M 25.996094 -36.171875 "/></g></g></g><g fill="#0e3a54" fill-opacity="1"><g transform="translate(750.313941, 171.028327)"><g><path d="M 26.503906 0 L 26.859375 -5.800781 L 26.402344 -5.800781 C 25.996094 -4.730469 24.265625 -1.984375 19.6875 -1.984375 L 6.765625 -1.984375 L 6.765625 -16.484375 L 12.363281 -16.484375 C 16.941406 -16.484375 18.671875 -13.734375 19.078125 -12.667969 L 19.535156 -12.667969 C 19.535156 -15.871094 19.535156 -19.078125 19.535156 -22.28125 L 19.078125 -22.28125 C 18.671875 -21.214844 16.941406 -18.464844 12.363281 -18.464844 L 6.765625 -18.464844 L 6.765625 -36.171875 L 18.261719 -36.171875 C 22.839844 -36.171875 24.519531 -33.421875 24.976562 -32.355469 L 25.386719 -32.355469 L 25.027344 -38.15625 L 0 -38.15625 C 0.710938 -36.222656 0.914062 -33.984375 0.914062 -31.386719 C 0.914062 -27.214844 0.914062 -10.9375 0.914062 -6.765625 C 0.914062 -4.171875 0.710938 -1.933594 0 0 Z M 26.503906 0 "/></g></g></g><g fill="#0e3a54" fill-opacity="1"><g transform="translate(793.657315, 171.028327)"><g/></g></g><g fill="#0e3a54" fill-opacity="1"><g transform="translate(823.418086, 171.028327)"><g><path d="M 6.714844 0 C 3.613281 -1.78125 2.898438 -5.851562 2.898438 -9.105469 L 2.898438 -32.914062 L 16.226562 -7.121094 L 18.464844 -7.121094 L 32.304688 -33.832031 L 32.304688 -6.765625 C 32.304688 -4.171875 32.152344 -1.933594 31.386719 0 L 39.121094 0 C 38.359375 -1.933594 38.207031 -4.171875 38.207031 -6.765625 C 38.207031 -10.9375 38.207031 -27.214844 38.207031 -31.386719 C 38.207031 -33.984375 38.359375 -36.222656 39.121094 -38.15625 L 32.304688 -38.15625 L 19.535156 -13.53125 L 6.816406 -38.15625 L 0.203125 -38.15625 L 0.914062 -36.730469 L 0.914062 -6.765625 C 0.914062 -4.171875 0.710938 -1.933594 0 0 Z M 6.714844 0 "/></g></g></g><g fill="#0e3a54" fill-opacity="1"><g transform="translate(878.97052, 171.028327)"><g><path d="M 19.789062 -38.867188 C 8.851562 -38.867188 0 -30.015625 0 -19.078125 C 0 -8.140625 8.851562 0.710938 19.789062 0.710938 C 30.726562 0.710938 39.578125 -8.140625 39.578125 -19.078125 C 39.578125 -30.015625 30.726562 -38.867188 19.789062 -38.867188 Z M 28.335938 -3.5625 C 21.671875 0.101562 12.515625 -3.917969 7.785156 -12.515625 C 3.050781 -21.0625 4.628906 -30.980469 11.242188 -34.644531 C 17.855469 -38.257812 27.0625 -34.238281 31.796875 -25.691406 C 36.476562 -17.09375 34.949219 -7.171875 28.335938 -3.5625 Z M 28.335938 -3.5625 "/></g></g></g><g fill="#0e3a54" fill-opacity="1"><g transform="translate(935.082525, 171.028327)"><g><path d="M 25.183594 -38.15625 C 28.285156 -36.375 28.996094 -32.304688 28.996094 -29.046875 L 28.996094 -8.953125 L 7.324219 -38.15625 C 4.882812 -38.15625 2.441406 -38.15625 0 -38.15625 L 0.914062 -36.933594 L 0.914062 -6.765625 C 0.914062 -4.171875 0.710938 -1.933594 0 0 L 6.714844 0 C 3.613281 -1.78125 2.898438 -5.851562 2.898438 -9.105469 L 2.898438 -34.238281 L 28.335938 0 L 30.980469 0 L 30.980469 -31.386719 C 30.980469 -33.984375 31.183594 -36.222656 31.898438 -38.15625 Z M 25.183594 -38.15625 "/></g></g></g><g fill="#0e3a54" fill-opacity="1"><g transform="translate(983.462146, 171.028327)"><g><path d="M 26.503906 0 L 26.859375 -5.800781 L 26.402344 -5.800781 C 25.996094 -4.730469 24.265625 -1.984375 19.6875 -1.984375 L 6.765625 -1.984375 L 6.765625 -16.484375 L 12.363281 -16.484375 C 16.941406 -16.484375 18.671875 -13.734375 19.078125 -12.667969 L 19.535156 -12.667969 C 19.535156 -15.871094 19.535156 -19.078125 19.535156 -22.28125 L 19.078125 -22.28125 C 18.671875 -21.214844 16.941406 -18.464844 12.363281 -18.464844 L 6.765625 -18.464844 L 6.765625 -36.171875 L 18.261719 -36.171875 C 22.839844 -36.171875 24.519531 -33.421875 24.976562 -32.355469 L 25.386719 -32.355469 L 25.027344 -38.15625 L 0 -38.15625 C 0.710938 -36.222656 0.914062 -33.984375 0.914062 -31.386719 C 0.914062 -27.214844 0.914062 -10.9375 0.914062 -6.765625 C 0.914062 -4.171875 0.710938 -1.933594 0 0 Z M 26.503906 0 "/></g></g></g><g fill="#0e3a54" fill-opacity="1"><g transform="translate(1026.805498, 171.028327)"><g><path d="M 20.652344 -21.113281 L 28.84375 -31.132812 C 31.132812 -33.933594 32.660156 -35.660156 35.457031 -38.15625 L 30.980469 -38.15625 C 30.117188 -36.324219 28.945312 -34.59375 27.878906 -33.066406 L 19.078125 -22.28125 L 11.242188 -33.523438 C 10.175781 -35.050781 9.359375 -36.324219 8.546875 -38.15625 L 0 -38.15625 C 1.476562 -36.78125 3.5625 -34.238281 4.730469 -32.558594 L 14.753906 -18.160156 L 14.753906 -6.765625 C 14.753906 -4.171875 14.601562 -1.933594 13.886719 0 L 21.570312 0 C 20.859375 -1.933594 20.652344 -4.171875 20.652344 -6.765625 Z M 20.652344 -21.113281 "/></g></g></g></svg>