<svg xmlns="http://www.w3.org/2000/svg" xmlns:xlink="http://www.w3.org/1999/xlink" width="1280" zoomAndPan="magnify" viewBox="0 0 960 540.000001" height="720" preserveAspectRatio="xMidYMid meet" version="1.0"><defs><g/><clipPath id="id1"><path d="M 121.296875 111 L 812.269531 111 L 812.269531 437 L 121.296875 437 Z M 121.296875 111 " clip-rule="nonzero"/></clipPath><clipPath id="id2"><path d="M 252.402344 243.71875 L 313.042969 243.71875 L 313.042969 335.050781 L 252.402344 335.050781 Z M 252.402344 243.71875 " clip-rule="nonzero"/></clipPath><clipPath id="id3"><path d="M 687.550781 214.308594 L 778.882812 214.308594 L 778.882812 333.335938 L 687.550781 333.335938 Z M 687.550781 214.308594 " clip-rule="nonzero"/></clipPath><clipPath id="id4"><path d="M 704 214.308594 L 762 214.308594 L 762 297 L 704 297 Z M 704 214.308594 " clip-rule="nonzero"/></clipPath><clipPath id="id5"><path d="M 699 328 L 767 328 L 767 333.335938 L 699 333.335938 Z M 699 328 " clip-rule="nonzero"/></clipPath></defs><g clip-path="url(#id1)"><path fill="#feffe8" d="M 323.425781 259.957031 C 317.472656 254.003906 317.472656 244.425781 323.425781 238.472656 L 323.976562 237.859375 C 329.925781 231.96875 339.558594 231.96875 345.507812 237.859375 L 361.027344 253.390625 C 368.941406 261.367188 381.824219 261.367188 389.738281 253.390625 L 405.316406 237.859375 C 411.207031 231.96875 420.898438 231.96875 426.789062 237.859375 L 427.402344 238.472656 C 433.289062 244.425781 433.351562 254.003906 427.402344 259.957031 L 375.382812 311.949219 Z M 680.195312 304.582031 C 663.328125 304.582031 649.710938 290.957031 649.710938 274.074219 C 649.710938 257.257812 663.328125 243.566406 680.195312 243.566406 C 697.003906 243.566406 710.683594 257.257812 710.683594 274.074219 C 710.683594 290.957031 697.003906 304.582031 680.195312 304.582031 Z M 374.214844 209.132812 C 352.441406 187.28125 317.042969 187.34375 295.269531 209.132812 L 294.65625 209.683594 C 272.816406 231.539062 272.816406 266.894531 294.65625 288.683594 L 361.027344 355.097656 C 368.941406 363.019531 381.824219 363.019531 389.738281 355.097656 L 456.109375 288.683594 C 477.949219 266.894531 477.949219 231.539062 456.109375 209.683594 L 455.496094 209.132812 C 433.78125 187.34375 398.386719 187.28125 376.546875 209.132812 L 375.382812 210.300781 Z M 680.195312 345.277344 C 719.457031 345.277344 751.292969 313.421875 751.292969 274.074219 C 751.292969 234.789062 719.457031 202.933594 680.195312 202.933594 C 640.875 202.933594 609.039062 234.789062 609.039062 274.074219 C 609.039062 313.421875 640.875 345.277344 680.195312 345.277344 Z M 141.601562 111.414062 C 130.378906 111.414062 121.296875 120.496094 121.296875 131.730469 L 121.296875 416.421875 C 121.296875 427.652344 130.378906 436.800781 141.601562 436.800781 L 680.195312 436.800781 C 684.859375 436.800781 689.398438 435.140625 693.015625 432.195312 L 804.847656 340.675781 C 809.570312 336.808594 812.269531 331.039062 812.269531 324.960938 L 812.269531 223.25 C 812.269531 217.175781 809.570312 211.402344 804.847656 207.535156 L 693.015625 116.015625 C 689.398438 113.007812 684.859375 111.414062 680.195312 111.414062 L 141.601562 111.414062 " fill-opacity="1" fill-rule="nonzero"/></g><g fill="#073a7d" fill-opacity="1"><g transform="translate(303.862419, 328.551492)"><g/></g></g><g fill="#073a7d" fill-opacity="1"><g transform="translate(325.111141, 328.551492)"><g><path d="M 19.296875 0.484375 C 13.546875 0.484375 9.132812 -0.753906 6.0625 -3.234375 C 3 -5.710938 1.46875 -9.238281 1.46875 -13.8125 C 1.46875 -17.925781 2.640625 -21.238281 4.984375 -23.75 C 7.335938 -26.257812 10.410156 -27.515625 14.203125 -27.515625 C 18.179688 -27.515625 20.5 -25.851562 21.15625 -22.53125 C 18.476562 -22.195312 16.335938 -21.226562 14.734375 -19.625 C 13.140625 -18.03125 12.34375 -15.960938 12.34375 -13.421875 C 12.34375 -11.128906 13.023438 -9.332031 14.390625 -8.03125 C 15.765625 -6.726562 17.59375 -6.078125 19.875 -6.078125 C 23.664062 -6.078125 26.769531 -7.769531 29.1875 -11.15625 C 31.601562 -14.550781 32.8125 -18.894531 32.8125 -24.1875 C 32.8125 -28.695312 31.863281 -32.175781 29.96875 -34.625 C 28.070312 -37.070312 25.425781 -38.296875 22.03125 -38.296875 C 18.570312 -38.296875 14.296875 -36.828125 9.203125 -33.890625 L 7.9375 -34.765625 L 15.46875 -71.890625 C 22.851562 -71.035156 28.335938 -70.609375 31.921875 -70.609375 C 37.867188 -70.609375 43.550781 -71.523438 48.96875 -73.359375 C 49.101562 -71.921875 49.171875 -70.84375 49.171875 -70.125 C 49.171875 -66.726562 48.269531 -63.984375 46.46875 -61.890625 C 44.675781 -59.804688 41.820312 -58.765625 37.90625 -58.765625 C 36.40625 -58.765625 34.609375 -58.925781 32.515625 -59.25 C 30.421875 -59.570312 28.429688 -59.929688 26.546875 -60.328125 C 24.910156 -60.648438 23.242188 -60.945312 21.546875 -61.21875 L 17.625 -43.484375 C 21.875 -45.503906 25.921875 -46.515625 29.765625 -46.515625 C 35.117188 -46.515625 39.347656 -44.703125 42.453125 -41.078125 C 45.554688 -37.460938 47.109375 -32.550781 47.109375 -26.34375 C 47.109375 -21.050781 45.945312 -16.378906 43.625 -12.328125 C 41.3125 -8.285156 38.046875 -5.140625 33.828125 -2.890625 C 29.617188 -0.640625 24.773438 0.484375 19.296875 0.484375 Z M 19.296875 0.484375 "/></g></g></g><g fill="#073a7d" fill-opacity="1"><g transform="translate(375.745344, 328.551492)"><g><path d="M 19.296875 0.484375 C 13.546875 0.484375 9.132812 -0.753906 6.0625 -3.234375 C 3 -5.710938 1.46875 -9.238281 1.46875 -13.8125 C 1.46875 -17.925781 2.640625 -21.238281 4.984375 -23.75 C 7.335938 -26.257812 10.410156 -27.515625 14.203125 -27.515625 C 18.179688 -27.515625 20.5 -25.851562 21.15625 -22.53125 C 18.476562 -22.195312 16.335938 -21.226562 14.734375 -19.625 C 13.140625 -18.03125 12.34375 -15.960938 12.34375 -13.421875 C 12.34375 -11.128906 13.023438 -9.332031 14.390625 -8.03125 C 15.765625 -6.726562 17.59375 -6.078125 19.875 -6.078125 C 23.664062 -6.078125 26.769531 -7.769531 29.1875 -11.15625 C 31.601562 -14.550781 32.8125 -18.894531 32.8125 -24.1875 C 32.8125 -28.695312 31.863281 -32.175781 29.96875 -34.625 C 28.070312 -37.070312 25.425781 -38.296875 22.03125 -38.296875 C 18.570312 -38.296875 14.296875 -36.828125 9.203125 -33.890625 L 7.9375 -34.765625 L 15.46875 -71.890625 C 22.851562 -71.035156 28.335938 -70.609375 31.921875 -70.609375 C 37.867188 -70.609375 43.550781 -71.523438 48.96875 -73.359375 C 49.101562 -71.921875 49.171875 -70.84375 49.171875 -70.125 C 49.171875 -66.726562 48.269531 -63.984375 46.46875 -61.890625 C 44.675781 -59.804688 41.820312 -58.765625 37.90625 -58.765625 C 36.40625 -58.765625 34.609375 -58.925781 32.515625 -59.25 C 30.421875 -59.570312 28.429688 -59.929688 26.546875 -60.328125 C 24.910156 -60.648438 23.242188 -60.945312 21.546875 -61.21875 L 17.625 -43.484375 C 21.875 -45.503906 25.921875 -46.515625 29.765625 -46.515625 C 35.117188 -46.515625 39.347656 -44.703125 42.453125 -41.078125 C 45.554688 -37.460938 47.109375 -32.550781 47.109375 -26.34375 C 47.109375 -21.050781 45.945312 -16.378906 43.625 -12.328125 C 41.3125 -8.285156 38.046875 -5.140625 33.828125 -2.890625 C 29.617188 -0.640625 24.773438 0.484375 19.296875 0.484375 Z M 19.296875 0.484375 "/></g></g></g><g fill="#073a7d" fill-opacity="1"><g transform="translate(426.379548, 328.551492)"><g><path d="M 4.015625 12.34375 C 3.429688 11.945312 3.140625 11.390625 3.140625 10.671875 C 3.140625 9.890625 3.332031 9.203125 3.71875 8.609375 C 4.113281 8.023438 4.769531 7.242188 5.6875 6.265625 C 6.59375 5.285156 7.242188 4.5 7.640625 3.90625 C 8.035156 3.320312 8.234375 2.609375 8.234375 1.765625 C 8.234375 1.046875 7.804688 0.390625 6.953125 -0.203125 C 3.878906 -2.160156 2.34375 -4.539062 2.34375 -7.34375 C 2.34375 -9.5 3.09375 -11.34375 4.59375 -12.875 C 6.101562 -14.414062 7.9375 -15.1875 10.09375 -15.1875 C 12.175781 -15.1875 13.804688 -14.5 14.984375 -13.125 C 16.160156 -11.75 16.75 -9.953125 16.75 -7.734375 C 16.75 -4.671875 15.585938 -1.210938 13.265625 2.640625 C 10.953125 6.492188 7.867188 9.726562 4.015625 12.34375 Z M 4.015625 12.34375 "/></g></g></g><g fill="#073a7d" fill-opacity="1"><g transform="translate(447.534267, 328.551492)"><g><path d="M 21.84375 0.984375 C 14.65625 0.984375 9.5625 -1.203125 6.5625 -5.578125 C 3.5625 -9.953125 2.0625 -15.925781 2.0625 -23.5 C 2.0625 -32.507812 3.460938 -40.867188 6.265625 -48.578125 C 9.078125 -56.285156 13.007812 -62.4375 18.0625 -67.03125 C 23.125 -71.632812 28.890625 -73.9375 35.359375 -73.9375 C 41.617188 -73.9375 46.332031 -71.847656 49.5 -67.671875 C 52.664062 -63.492188 54.25 -57.75 54.25 -50.4375 C 54.25 -43.1875 53.140625 -35.59375 50.921875 -27.65625 C 48.703125 -19.726562 45.160156 -12.972656 40.296875 -7.390625 C 35.429688 -1.804688 29.28125 0.984375 21.84375 0.984375 Z M 23.109375 -6.359375 C 26.179688 -6.359375 29.085938 -8.707031 31.828125 -13.40625 C 34.566406 -18.113281 36.769531 -24.15625 38.4375 -31.53125 C 40.101562 -38.914062 40.9375 -46.359375 40.9375 -53.859375 C 40.9375 -57.972656 40.445312 -61.382812 39.46875 -64.09375 C 38.488281 -66.8125 37.082031 -68.171875 35.25 -68.171875 C 32.25 -68.171875 29.3125 -65.785156 26.4375 -61.015625 C 23.570312 -56.242188 21.222656 -50.171875 19.390625 -42.796875 C 17.566406 -35.421875 16.65625 -28.175781 16.65625 -21.0625 C 16.65625 -11.257812 18.804688 -6.359375 23.109375 -6.359375 Z M 23.109375 -6.359375 "/></g></g></g><g fill="#073a7d" fill-opacity="1"><g transform="translate(501.008697, 328.551492)"><g><path d="M 21.84375 0.984375 C 14.65625 0.984375 9.5625 -1.203125 6.5625 -5.578125 C 3.5625 -9.953125 2.0625 -15.925781 2.0625 -23.5 C 2.0625 -32.507812 3.460938 -40.867188 6.265625 -48.578125 C 9.078125 -56.285156 13.007812 -62.4375 18.0625 -67.03125 C 23.125 -71.632812 28.890625 -73.9375 35.359375 -73.9375 C 41.617188 -73.9375 46.332031 -71.847656 49.5 -67.671875 C 52.664062 -63.492188 54.25 -57.75 54.25 -50.4375 C 54.25 -43.1875 53.140625 -35.59375 50.921875 -27.65625 C 48.703125 -19.726562 45.160156 -12.972656 40.296875 -7.390625 C 35.429688 -1.804688 29.28125 0.984375 21.84375 0.984375 Z M 23.109375 -6.359375 C 26.179688 -6.359375 29.085938 -8.707031 31.828125 -13.40625 C 34.566406 -18.113281 36.769531 -24.15625 38.4375 -31.53125 C 40.101562 -38.914062 40.9375 -46.359375 40.9375 -53.859375 C 40.9375 -57.972656 40.445312 -61.382812 39.46875 -64.09375 C 38.488281 -66.8125 37.082031 -68.171875 35.25 -68.171875 C 32.25 -68.171875 29.3125 -65.785156 26.4375 -61.015625 C 23.570312 -56.242188 21.222656 -50.171875 19.390625 -42.796875 C 17.566406 -35.421875 16.65625 -28.175781 16.65625 -21.0625 C 16.65625 -11.257812 18.804688 -6.359375 23.109375 -6.359375 Z M 23.109375 -6.359375 "/></g></g></g><g fill="#073a7d" fill-opacity="1"><g transform="translate(554.483117, 328.551492)"><g><path d="M 21.84375 0.984375 C 14.65625 0.984375 9.5625 -1.203125 6.5625 -5.578125 C 3.5625 -9.953125 2.0625 -15.925781 2.0625 -23.5 C 2.0625 -32.507812 3.460938 -40.867188 6.265625 -48.578125 C 9.078125 -56.285156 13.007812 -62.4375 18.0625 -67.03125 C 23.125 -71.632812 28.890625 -73.9375 35.359375 -73.9375 C 41.617188 -73.9375 46.332031 -71.847656 49.5 -67.671875 C 52.664062 -63.492188 54.25 -57.75 54.25 -50.4375 C 54.25 -43.1875 53.140625 -35.59375 50.921875 -27.65625 C 48.703125 -19.726562 45.160156 -12.972656 40.296875 -7.390625 C 35.429688 -1.804688 29.28125 0.984375 21.84375 0.984375 Z M 23.109375 -6.359375 C 26.179688 -6.359375 29.085938 -8.707031 31.828125 -13.40625 C 34.566406 -18.113281 36.769531 -24.15625 38.4375 -31.53125 C 40.101562 -38.914062 40.9375 -46.359375 40.9375 -53.859375 C 40.9375 -57.972656 40.445312 -61.382812 39.46875 -64.09375 C 38.488281 -66.8125 37.082031 -68.171875 35.25 -68.171875 C 32.25 -68.171875 29.3125 -65.785156 26.4375 -61.015625 C 23.570312 -56.242188 21.222656 -50.171875 19.390625 -42.796875 C 17.566406 -35.421875 16.65625 -28.175781 16.65625 -21.0625 C 16.65625 -11.257812 18.804688 -6.359375 23.109375 -6.359375 Z M 23.109375 -6.359375 "/></g></g></g><g clip-path="url(#id2)"><path fill="#073a7d" d="M 294.789062 253.894531 L 309.882812 253.894531 L 313.042969 243.75 L 255.5625 243.75 L 252.402344 253.894531 L 272.617188 253.894531 C 280.382812 253.894531 286.90625 258.949219 289.285156 265.933594 L 255.5625 265.933594 L 252.402344 276.074219 L 289.675781 276.074219 C 287.707031 283.714844 280.847656 289.386719 272.617188 289.386719 L 252.402344 289.386719 L 252.402344 297.171875 L 289.671875 335.019531 L 302.933594 335.019531 L 302.933594 333.75 L 267.5625 298.257812 C 270.667969 298.257812 274.351562 298.257812 275.144531 298.257812 C 288.28125 298.257812 299.109375 288.65625 301.226562 276.074219 L 309.882812 276.074219 L 313.042969 265.933594 L 301.027344 265.933594 C 300.03125 261.351562 297.804688 257.257812 294.789062 253.894531 Z M 294.789062 253.894531 " fill-opacity="1" fill-rule="nonzero"/></g><g clip-path="url(#id3)"><path stroke-linecap="butt" transform="matrix(0.0620204, 0, 0, -0.0618657, 601.329483, 405.348822)" fill="none" stroke-linejoin="miter" d="M 1710.226118 2958.797794 L 1452.498532 2958.797794 C 1452.498532 2958.797794 1416.787011 2432.203332 1836.507596 2487.388411 " stroke="#fabb4c" stroke-width="120" stroke-opacity="1" stroke-miterlimit="10"/><path stroke-linecap="butt" transform="matrix(0.0620204, 0, 0, -0.0618657, 601.329483, 405.348822)" fill="none" stroke-linejoin="miter" d="M 2541.794377 2958.797794 L 2799.521963 2958.797794 C 2799.521963 2958.797794 2835.1705 2432.203332 2415.512898 2487.388411 " stroke="#fabb4c" stroke-width="120" stroke-opacity="1" stroke-miterlimit="10"/></g><g clip-path="url(#id4)"><path fill="#fabb4c" d="M 704.867188 214.300781 L 704.867188 235.804688 C 705.851562 273.519531 729.929688 273.265625 729.929688 273.265625 L 729.929688 296.527344 L 736.441406 296.527344 L 736.441406 273.265625 C 736.441406 273.265625 760.515625 273.519531 761.507812 235.804688 L 761.507812 214.300781 L 704.867188 214.300781 " fill-opacity="1" fill-rule="nonzero"/></g><path fill="#fabb4c" d="M 736.441406 296.527344 L 729.929688 296.527344 L 721.433594 304.117188 L 744.9375 304.117188 L 736.441406 296.527344 " fill-opacity="1" fill-rule="nonzero"/><path fill="#3d4176" d="M 761.105469 328.027344 L 705.261719 328.027344 L 705.261719 304.117188 L 761.105469 304.117188 L 761.105469 328.027344 " fill-opacity="1" fill-rule="nonzero"/><g clip-path="url(#id5)"><path fill="#2c2d53" d="M 766.835938 333.34375 L 699.179688 333.34375 L 699.179688 328.027344 L 766.835938 328.027344 L 766.835938 333.34375 " fill-opacity="1" fill-rule="nonzero"/></g><path fill="#fabb4c" d="M 748.039062 322.527344 L 718.332031 322.527344 L 718.332031 309.625 L 748.039062 309.625 L 748.039062 322.527344 " fill-opacity="1" fill-rule="nonzero"/><path fill="#fff766" d="M 733.183594 223.554688 L 737.5625 232.410156 L 747.367188 233.832031 L 740.273438 240.730469 L 741.949219 250.460938 L 733.183594 245.867188 L 724.421875 250.460938 L 726.097656 240.730469 L 719 233.832031 L 728.804688 232.410156 L 733.183594 223.554688 " fill-opacity="1" fill-rule="nonzero"/><g fill="#073a7d" fill-opacity="1"><g transform="translate(295.86613, 205.580403)"><g><path d="M 7.5 -19.007812 L 0 -19.007812 C 0.355469 -18.042969 0.457031 -16.929688 0.457031 -15.636719 C 0.457031 -13.558594 0.457031 -5.449219 0.457031 -3.371094 C 0.457031 -2.078125 0.355469 -0.964844 0 0 C 1.113281 0 2.710938 0 3.828125 0 C 3.472656 -0.964844 3.371094 -2.078125 3.371094 -3.371094 L 3.371094 -3.902344 C 3.371094 -9.984375 13.6875 -8.894531 13.6875 -14.976562 C 13.6875 -17.183594 11.734375 -19.007812 7.5 -19.007812 Z M 3.371094 -6.945312 L 3.371094 -18.121094 L 4.890625 -18.121094 C 7.933594 -18.121094 10.667969 -17.4375 10.746094 -15.105469 C 10.898438 -11.203125 5.5 -10.542969 3.371094 -6.945312 Z M 3.371094 -6.945312 "/></g></g></g><g fill="#073a7d" fill-opacity="1"><g transform="translate(317.734798, 205.580403)"><g><path d="M 7.5 -19.007812 L 0 -19.007812 C 0.355469 -18.042969 0.457031 -16.929688 0.457031 -15.636719 C 0.457031 -13.558594 0.457031 -5.449219 0.457031 -3.371094 C 0.457031 -2.078125 0.355469 -0.964844 0 0 C 1.113281 0 2.710938 0 3.828125 0 C 3.472656 -0.964844 3.371094 -2.078125 3.371094 -3.371094 L 3.371094 -3.902344 C 3.371094 -5.929688 4.511719 -7.148438 6.03125 -8.109375 L 9.148438 -2.253906 C 9.554688 -1.519531 9.832031 -0.8125 10.011719 0 L 14.039062 0 C 13.40625 -0.8125 12.496094 -2.253906 11.886719 -3.371094 L 8.617188 -9.480469 C 11.175781 -10.71875 13.6875 -11.988281 13.6875 -14.976562 C 13.6875 -17.183594 11.734375 -19.007812 7.5 -19.007812 Z M 3.371094 -6.945312 L 3.371094 -18.121094 L 4.890625 -18.121094 C 7.933594 -18.121094 10.667969 -17.4375 10.746094 -15.105469 C 10.898438 -11.203125 5.5 -10.542969 3.371094 -6.945312 Z M 3.371094 -6.945312 "/></g></g></g><g fill="#073a7d" fill-opacity="1"><g transform="translate(339.958212, 205.580403)"><g><path d="M 0.457031 -15.636719 L 0.457031 -3.371094 C 0.457031 -2.078125 0.355469 -0.964844 0 0 L 3.828125 0 C 3.472656 -0.964844 3.371094 -2.078125 3.371094 -3.371094 C 3.371094 -5.449219 3.371094 -13.558594 3.371094 -15.636719 C 3.371094 -16.929688 3.472656 -18.042969 3.828125 -19.007812 L 0 -19.007812 C 0.355469 -18.042969 0.457031 -16.929688 0.457031 -15.636719 Z M 0.457031 -15.636719 "/></g></g></g><g fill="#073a7d" fill-opacity="1"><g transform="translate(352.046161, 205.580403)"><g><path d="M 12.949219 -18.019531 C 12.546875 -16.980469 11.960938 -16.195312 11.480469 -15.535156 L 2.8125 -3.675781 C 1.800781 -2.332031 0.863281 -1.0625 -0.457031 0 C 5.246094 0 10.949219 0 16.675781 0 L 16.855469 -2.890625 L 16.625 -2.890625 C 16.421875 -2.355469 15.5625 -0.988281 13.28125 -0.988281 L 4.789062 -0.988281 C 5.195312 -2.027344 5.777344 -2.8125 6.285156 -3.472656 L 14.953125 -15.332031 C 15.941406 -16.675781 16.878906 -17.945312 18.195312 -19.007812 C 12.496094 -19.007812 6.792969 -19.007812 1.0625 -19.007812 L 0.886719 -16.117188 L 1.113281 -16.117188 C 1.316406 -16.652344 2.179688 -18.019531 4.460938 -18.019531 Z M 12.949219 -18.019531 "/></g></g></g><g fill="#073a7d" fill-opacity="1"><g transform="translate(378.298421, 205.580403)"><g><path d="M 13.203125 0 L 13.382812 -2.890625 L 13.152344 -2.890625 C 12.949219 -2.355469 12.089844 -0.988281 9.808594 -0.988281 L 3.371094 -0.988281 L 3.371094 -8.210938 L 6.160156 -8.210938 C 8.441406 -8.210938 9.300781 -6.84375 9.503906 -6.3125 L 9.730469 -6.3125 C 9.730469 -7.90625 9.730469 -9.503906 9.730469 -11.101562 L 9.503906 -11.101562 C 9.300781 -10.566406 8.441406 -9.199219 6.160156 -9.199219 L 3.371094 -9.199219 L 3.371094 -18.019531 L 9.097656 -18.019531 C 11.378906 -18.019531 12.214844 -16.652344 12.445312 -16.117188 L 12.648438 -16.117188 L 12.46875 -19.007812 L 0 -19.007812 C 0.355469 -18.042969 0.457031 -16.929688 0.457031 -15.636719 C 0.457031 -13.558594 0.457031 -5.449219 0.457031 -3.371094 C 0.457031 -2.078125 0.355469 -0.964844 0 0 Z M 13.203125 0 "/></g></g></g><g fill="#073a7d" fill-opacity="1"><g transform="translate(399.888364, 205.580403)"><g/></g></g><g fill="#073a7d" fill-opacity="1"><g transform="translate(414.705084, 205.580403)"><g><path d="M 10.367188 -19.007812 L 7.222656 -19.007812 L 1.570312 -3.34375 C 1.164062 -2.230469 0.558594 -0.9375 0 0 L 3.320312 0 C 2.507812 -1.367188 2.28125 -2.40625 2.609375 -3.34375 C 3.066406 -4.585938 3.523438 -5.601562 4.714844 -6.285156 C 6.460938 -7.324219 9.175781 -7.300781 10.949219 -6.210938 C 11.988281 -5.550781 12.46875 -4.585938 12.925781 -3.292969 C 13.332031 -2.203125 13.761719 -0.886719 13.761719 0 L 17.613281 0 C 17.054688 -0.9375 16.421875 -2.230469 16.015625 -3.34375 Z M 11.609375 -6.96875 C 9.378906 -8.390625 6.132812 -8.390625 3.929688 -6.96875 L 7.753906 -17.539062 Z M 11.609375 -6.96875 "/></g></g></g><g fill="#073a7d" fill-opacity="1"><g transform="translate(440.501245, 205.580403)"><g><path d="M 3.34375 0 C 1.800781 -0.886719 1.445312 -2.914062 1.445312 -4.535156 L 1.445312 -16.398438 L 8.085938 -3.546875 L 9.199219 -3.546875 L 16.09375 -16.855469 L 16.09375 -3.371094 C 16.09375 -2.078125 16.015625 -0.964844 15.636719 0 L 19.488281 0 C 19.109375 -0.964844 19.03125 -2.078125 19.03125 -3.371094 C 19.03125 -5.449219 19.03125 -13.558594 19.03125 -15.636719 C 19.03125 -16.929688 19.109375 -18.042969 19.488281 -19.007812 L 16.09375 -19.007812 L 9.730469 -6.742188 L 3.394531 -19.007812 L 0.101562 -19.007812 L 0.457031 -18.296875 L 0.457031 -3.371094 C 0.457031 -2.078125 0.355469 -0.964844 0 0 Z M 3.34375 0 "/></g></g></g><g fill="#073a7d" fill-opacity="1"><g transform="translate(468.172472, 205.580403)"><g><path d="M 9.859375 -19.363281 C 4.410156 -19.363281 0 -14.953125 0 -9.503906 C 0 -4.054688 4.410156 0.355469 9.859375 0.355469 C 15.308594 0.355469 19.71875 -4.054688 19.71875 -9.503906 C 19.71875 -14.953125 15.308594 -19.363281 9.859375 -19.363281 Z M 14.117188 -1.773438 C 10.796875 0.0507812 6.234375 -1.953125 3.878906 -6.234375 C 1.519531 -10.492188 2.304688 -15.433594 5.601562 -17.257812 C 8.894531 -19.058594 13.484375 -17.054688 15.839844 -12.796875 C 18.171875 -8.515625 17.410156 -3.574219 14.117188 -1.773438 Z M 14.117188 -1.773438 "/></g></g></g><g fill="#073a7d" fill-opacity="1"><g transform="translate(496.122425, 205.580403)"><g><path d="M 14.953125 -19.007812 L 11.609375 -19.007812 C 13.152344 -18.121094 13.507812 -16.117188 13.507812 -14.496094 L 13.507812 -6.96875 C 13.507812 -3.546875 11.429688 -1.113281 7.933594 -1.039062 C 4.230469 -0.988281 3.371094 -4.359375 3.371094 -7.148438 L 3.371094 -15.636719 C 3.371094 -16.929688 3.472656 -18.042969 3.828125 -19.007812 L 0 -19.007812 C 0.355469 -18.042969 0.457031 -16.929688 0.457031 -15.636719 L 0.457031 -7.199219 C 0.457031 -3.066406 3.066406 0 7.476562 0 C 11.886719 0 14.496094 -2.890625 14.496094 -6.894531 L 14.496094 -15.636719 C 14.496094 -16.929688 14.597656 -18.042969 14.953125 -19.007812 Z M 14.953125 -19.007812 "/></g></g></g><g fill="#073a7d" fill-opacity="1"><g transform="translate(519.232696, 205.580403)"><g><path d="M 12.546875 -19.007812 C 14.089844 -18.121094 14.445312 -16.09375 14.445312 -14.472656 L 14.445312 -4.460938 L 3.648438 -19.007812 C 2.433594 -19.007812 1.214844 -19.007812 0 -19.007812 L 0.457031 -18.398438 L 0.457031 -3.371094 C 0.457031 -2.078125 0.355469 -0.964844 0 0 L 3.34375 0 C 1.800781 -0.886719 1.445312 -2.914062 1.445312 -4.535156 L 1.445312 -17.054688 L 14.117188 0 L 15.433594 0 L 15.433594 -15.636719 C 15.433594 -16.929688 15.535156 -18.042969 15.890625 -19.007812 Z M 12.546875 -19.007812 "/></g></g></g><g fill="#073a7d" fill-opacity="1"><g transform="translate(543.331164, 205.580403)"><g><path d="M 9.148438 -3.371094 C 9.148438 -8.238281 9.148438 -13.128906 9.148438 -18.019531 L 11.785156 -18.019531 C 14.066406 -18.019531 14.925781 -16.652344 15.128906 -16.117188 L 15.359375 -16.117188 L 15.179688 -19.007812 L 0.175781 -19.007812 L 0 -16.117188 L 0.226562 -16.117188 C 0.429688 -16.652344 1.292969 -18.019531 3.546875 -18.019531 L 6.210938 -18.019531 C 6.210938 -13.128906 6.210938 -8.238281 6.210938 -3.371094 C 6.210938 -2.078125 6.132812 -0.964844 5.753906 0 L 9.578125 0 C 9.226562 -0.964844 9.148438 -2.078125 9.148438 -3.371094 Z M 9.148438 -3.371094 "/></g></g></g><g fill="#073a7d" fill-opacity="1"><g transform="translate(566.89701, 205.580403)"><g/></g></g></svg>